<?xml version="1.0" encoding="utf-8"?>
<!-- Generator: Adobe Illustrator 25.1.0, SVG Export Plug-In . SVG Version: 6.00 Build 0)  -->
<svg version="1.1" id="Layer_1" xmlns="http://www.w3.org/2000/svg" xmlns:xlink="http://www.w3.org/1999/xlink" x="0px" y="0px"
	 viewBox="0 0 128 40" style="enable-background:new 0 0 128 40;" xml:space="preserve">
<style type="text/css">
	.st0{fill:#F81155;}
	.st1{fill:#005BFF;}
	.st2{fill:none;}
	.st3{fill:#FC87AB;}
</style>
<circle class="st0" cx="124.2" cy="-331" r="1"/>
<g>
	<path class="st1" d="M15.4,6.1C6.6,5.2-0.8,12.6,0.1,21.4C0.7,28,6,33.2,12.5,33.9c8.8,0.9,16.2-6.5,15.3-15.3
		C27.2,12,21.9,6.8,15.4,6.1z M14.9,27.4C10.1,28,6,23.9,6.6,19c0.4-3.3,3.1-6,6.4-6.4c4.9-0.6,9,3.5,8.4,8.4
		C20.9,24.3,18.2,27,14.9,27.4z"/>
	<path class="st1" d="M35.3,6.7c-2,0-3.6,1.8-3.2,3.9c0.3,1.5,1.8,2.6,3.3,2.6h9.1L30.4,31.8c-0.5,0.6,0,1.5,0.7,1.5h22.2
		c1.6,0,3-1,3.3-2.6c0.4-2.1-1.2-3.9-3.2-3.9h-11L56.5,8.2c0.5-0.6,0-1.5-0.8-1.5H35.3z"/>
	<path class="st1" d="M124,6.7c-1.5,0.3-2.6,1.7-2.6,3.3v10.9l-17.6-14c-0.6-0.5-1.5-0.1-1.5,0.7V30c0,1.5,1,3,2.6,3.3
		c2.1,0.4,4-1.2,4-3.2v-11l17.6,14c0.6,0.5,1.5,0,1.5-0.7V9.9C128,7.9,126.1,6.3,124,6.7z"/>
	<path class="st1" d="M78.1,12.6c7.5,0,13,3.9,13,7.4s-5.6,7.4-13,7.4s-13-3.9-13-7.4S70.7,12.6,78.1,12.6 M78.1,6
		c-10.8,0-19.5,6.2-19.5,14s8.8,14,19.5,14s19.5-6.3,19.5-14C97.7,12.3,88.9,6,78.1,6L78.1,6z"/>
</g>
<g>
	<path class="st2" d="M70,25.7c2.1,1,4.8,1.7,7.8,1.7l-2.2-2.1L70,25.7z"/>
	<polygon class="st0" points="86.6,11.1 84.7,0.3 80.2,16.3 	"/>
	<polygon class="st0" points="76.2,7.3 65.3,5.8 80.2,16.3 	"/>
	<polygon class="st0" points="86.3,22.2 96,17 80.2,16.3 	"/>
	<path class="st0" d="M75.6,25.3l2.2,2.1c0.1,0,0.2,0,0.3,0c1.5,0,2.9-0.2,4.2-0.4l-2.1-10.7L75.6,25.3z"/>
	<path class="st0" d="M67.6,24.2l12.7-7.9l-10.9-0.2l-3.2,6.6C66.5,23.2,67,23.7,67.6,24.2z"/>
	<path class="st3" d="M80.2,16.3l-12.7,7.9c0.7,0.6,1.5,1.1,2.4,1.5l5.6-0.4L80.2,16.3z"/>
	<path class="st3" d="M82.4,27c1-0.2,2-0.5,2.9-0.9l1-3.9l-6-5.9L82.4,27z"/>
	<polygon class="st3" points="96,17 86.6,11.1 80.2,16.3 	"/>
	<polygon class="st3" points="84.7,0.3 76.2,7.3 80.2,16.3 	"/>
	<polygon class="st3" points="65.3,5.8 69.4,16.1 80.2,16.3 	"/>
</g>
</svg>
