<svg width="44" height="52" viewBox="0 0 44 52" fill="none" xmlns="http://www.w3.org/2000/svg">
<path fill-rule="evenodd" clip-rule="evenodd" d="M22 8C20.896 8 20 8.896 20 10V26H30C31.104 26 32 25.104 32 24C32 22.896 31.104 22 30 22H24V10C24 8.896 23.104 8 22 8Z" fill="#005BFF"/>
<mask id="mask0" mask-type="alpha" maskUnits="userSpaceOnUse" x="0" y="0" width="44" height="52">
<path fill-rule="evenodd" clip-rule="evenodd" d="M0.000488281 0H44V51.9999H0.000488281V0Z" fill="white"/>
</mask>
<g mask="url(#mask0)">
<path fill-rule="evenodd" clip-rule="evenodd" d="M35.1055 44.211C34.1175 44.705 33.7175 45.906 34.2105 46.895L34.7645 48H9.41849L14.7115 38.582L13.0015 37.593C7.44949 34.381 4.00049 28.406 4.00049 22C4.00049 12.075 12.0745 4 22.0005 4C31.9255 4 40.0005 12.075 40.0005 22C40.0005 28.406 36.5505 34.381 30.9985 37.593C27.7575 39.468 23.8975 40.278 20.1975 39.911C19.1055 39.8 18.1195 40.604 18.0095 41.704C17.9005 42.803 18.7025 43.782 19.8025 43.892C20.5255 43.963 21.2655 44 22.0005 44C25.8675 44 29.6715 42.982 33.0015 41.056C39.7855 37.131 44.0005 29.83 44.0005 22C44.0005 9.869 34.1305 0 22.0005 0C9.86949 0 0.000488281 9.869 0.000488281 22C0.000488281 29.167 3.53149 35.892 9.33249 39.988L2.58149 52H41.2355L37.7895 45.106C37.2935 44.117 36.0925 43.717 35.1055 44.211Z" fill="#005BFF"/>
</g>
</svg>
