<svg width="54" height="52" viewBox="0 0 54 52" fill="none" xmlns="http://www.w3.org/2000/svg">
<path d="M41 23V19C46 19 50 15 50 10V9H41V5H54V10C54 17.2 48.2 23 41 23Z" fill="#005BFF"/>
<path d="M13 23C5.8 23 0 17.2 0 10V5H13V9H4V10C4 15 8 19 13 19V23Z" fill="#005BFF"/>
<path d="M41 52H13V42H15C18.3 42 21 39.3 21 36V35.8C15.3 34.8 11 29.9 11 24V0H34C35.1 0 36 0.9 36 2C36 3.1 35.1 4 34 4H15V24C15 28.4 18.6 32 23 32H25V36C25 40.8 21.6 44.9 17 45.8V48H37V45.8C32.4 44.9 29 40.8 29 36V32H31C35.4 32 39 28.4 39 24V2C39 0.9 39.9 0 41 0C42.1 0 43 0.9 43 2V24C43 29.9 38.7 34.9 33 35.8V36C33 39.3 35.7 42 39 42H41V52Z" fill="#005BFF"/>
</svg>
