<svg width="72" height="56" viewBox="0 0 72 56" fill="none" xmlns="http://www.w3.org/2000/svg">
<path fill-rule="evenodd" clip-rule="evenodd" d="M35.1482 4.19044C35.6877 3.93652 36.3123 3.93652 36.8518 4.19044L68.8518 19.2529C69.5537 19.5833 70.0012 20.2899 70 21.0657C69.9988 21.8415 69.549 22.5466 68.846 22.8748L36.846 37.8123C36.3098 38.0626 35.6902 38.0626 35.154 37.8123L24.154 32.6775C23.1531 32.2103 22.7205 31.0202 23.1877 30.0193C23.6549 29.0184 24.8451 28.5857 25.846 29.053L36 33.7928L63.2878 21.055L36 8.21049L8.71216 21.055L17.846 25.3186C18.8469 25.7858 19.2795 26.9759 18.8123 27.9768C18.3451 28.9777 17.1549 29.4103 16.154 28.9431L3.15404 22.8748C2.45104 22.5466 2.00124 21.8415 2 21.0657C1.99876 20.2899 2.4463 19.5833 3.14824 19.2529L35.1482 4.19044Z" fill="#005BFF"/>
<path fill-rule="evenodd" clip-rule="evenodd" d="M62 22C63.1046 22 64 22.8954 64 24V49.5C64 50.6046 63.1046 51.5 62 51.5C60.8954 51.5 60 50.6046 60 49.5V24C60 22.8954 60.8954 22 62 22Z" fill="#005BFF"/>
<path fill-rule="evenodd" clip-rule="evenodd" d="M15 38.9303V27H19V39.0998L18.9928 39.1716C18.9927 39.1737 18.9926 39.1761 18.9925 39.1789C18.9916 39.205 18.9907 39.2615 18.9942 39.3441C19.0013 39.5098 19.0263 39.7755 19.1039 40.108C19.2572 40.765 19.6183 41.6973 20.4866 42.6621C22.2043 44.5707 26.2887 47 36 47C45.7112 47 49.7957 44.5707 51.5134 42.6621C52.3817 41.6973 52.7427 40.765 52.896 40.108C52.9736 39.7755 52.9986 39.5098 53.0057 39.3441C53.0092 39.2615 53.0083 39.205 53.0074 39.1789C53.0073 39.1761 53.0072 39.1737 53.0072 39.1716L53 39.0998V34C53 32.8954 53.8954 32 55 32C56.1045 32 57 32.8954 57 34V38.9303C57.0019 38.9638 57.0038 39.0023 57.0052 39.0457C57.0092 39.1661 57.0102 39.3245 57.002 39.5153C56.9857 39.8964 56.9326 40.412 56.7914 41.017C56.5072 42.235 55.8683 43.8027 54.4866 45.3379C51.7043 48.4293 46.2887 51 36 51C25.7112 51 20.2957 48.4293 17.5134 45.3379C16.1317 43.8027 15.4927 42.235 15.2085 41.017C15.0674 40.412 15.0142 39.8964 14.9979 39.5153C14.9897 39.3245 14.9907 39.1661 14.9947 39.0457C14.9962 39.0023 14.998 38.9638 15 38.9303Z" fill="#005BFF"/>
</svg>
