<svg width="181" height="58" viewBox="0 0 181 58" fill="none" xmlns="http://www.w3.org/2000/svg">
<path d="M38.5147 0H0V26.9724H38.5147V0Z" fill="#F91155"/>
<path d="M69.8197 31.0276H31.2102V57.9999H69.8197V31.0276Z" fill="#06CA99"/>
<path d="M27.131 31.0276H0V57.9999H27.131V31.0276Z" fill="#005BFF"/>
<path d="M63.4639 14.4293C63.0844 17.6358 60.4282 20.1822 57.2028 20.6537C52.4597 21.2196 48.4754 17.2586 49.0446 12.6375C49.424 9.43096 52.0802 6.88462 55.3056 6.41307C60.0488 5.75291 64.033 9.71388 63.4639 14.4293ZM57.6772 0.0943716C49.1394 -0.754409 41.9298 6.31876 42.7836 14.9009C43.4476 21.2196 48.5702 26.3123 54.9261 26.9724C63.4639 27.8212 70.6735 20.748 69.8197 12.1659C69.1557 5.75291 64.033 0.660225 57.6772 0.0943716Z" fill="#005BFF"/>
<path d="M87.8438 10.1855C86.8003 10.7513 85.9465 11.6001 85.3773 12.7318C84.8082 13.7692 84.5236 14.9952 84.5236 16.3156C84.5236 17.6359 84.8082 18.8619 85.3773 19.8993C85.9465 20.9367 86.8003 21.7855 87.8438 22.4456C88.8873 23.0115 90.1205 23.3887 91.4486 23.3887C92.7767 23.3887 93.9151 23.1058 95.0534 22.4456C96.0969 21.8798 96.9507 21.031 97.5199 19.9936C98.0891 18.9562 98.3737 17.7302 98.3737 16.4099C98.3737 15.0895 98.0891 13.8635 97.5199 12.8261C96.9507 11.7887 96.0969 10.9399 95.0534 10.3741C94.0099 9.80823 92.7767 9.431 91.4486 9.431C90.0257 9.24238 88.8873 9.52531 87.8438 10.1855ZM96.0021 8.48791C97.3302 9.24238 98.4685 10.2798 99.2274 11.6944C99.9864 13.0147 100.366 14.618 100.366 16.3156C100.366 18.0131 99.9864 19.6164 99.2274 20.9367C98.4685 22.257 97.3302 23.3887 96.0021 24.1432C94.674 24.8977 93.0613 25.2749 91.4486 25.2749C89.7411 25.2749 88.2233 24.8977 86.8952 24.1432C85.5671 23.3887 84.4287 22.3513 83.6698 20.9367C82.9109 19.6164 82.5314 18.0131 82.5314 16.3156C82.5314 14.618 82.9109 13.0147 83.6698 11.6944C84.4287 10.3741 85.5671 9.24238 86.8952 8.48791C88.2233 7.73344 89.8359 7.3562 91.4486 7.3562C93.0613 7.3562 94.5791 7.73344 96.0021 8.48791Z" fill="#001A34"/>
<path d="M110.801 23.1058V24.8034H101.314V23.2001L108.145 15.1839H101.694V13.4863H110.327V15.0896L103.496 23.1058H110.801Z" fill="#001A34"/>
<path d="M115.165 15.3725C114.501 15.7498 114.026 16.2213 113.647 16.8815C113.267 17.5416 113.078 18.2961 113.078 19.1449C113.078 19.9937 113.267 20.7481 113.647 21.4083C114.026 22.0685 114.501 22.54 115.165 22.9172C115.829 23.2945 116.588 23.4831 117.346 23.4831C118.2 23.4831 118.864 23.2945 119.528 22.9172C120.192 22.54 120.667 22.0685 121.046 21.4083C121.426 20.7481 121.615 19.9937 121.615 19.1449C121.615 18.2961 121.426 17.5416 121.046 16.8815C120.667 16.2213 120.192 15.7498 119.528 15.3725C118.864 14.9953 118.105 14.8067 117.346 14.8067C116.493 14.901 115.829 15.0896 115.165 15.3725ZM120.477 13.9579C121.426 14.4294 122.184 15.1839 122.659 16.127C123.228 17.0701 123.418 18.1075 123.418 19.2392C123.418 20.3709 123.133 21.4083 122.659 22.3514C122.09 23.2945 121.426 23.9546 120.477 24.5205C119.528 24.992 118.485 25.275 117.346 25.275C116.208 25.275 115.165 24.992 114.216 24.5205C113.267 24.0489 112.508 23.2945 112.034 22.3514C111.465 21.4083 111.275 20.3709 111.275 19.2392C111.275 18.1075 111.56 17.0701 112.034 16.127C112.603 15.1839 113.267 14.5237 114.216 13.9579C115.165 13.4863 116.208 13.2034 117.346 13.2034C118.58 13.1091 119.623 13.392 120.477 13.9579Z" fill="#001A34"/>
<path d="M134.612 14.3351C135.371 15.0896 135.75 16.3156 135.75 17.9189V24.8034H133.948V18.2018C133.948 17.0701 133.663 16.3156 133.094 15.7498C132.525 15.1839 131.766 14.901 130.817 14.901C129.774 14.901 128.825 15.2782 128.161 16.0327C127.497 16.7872 127.117 18.0132 127.117 19.6164V24.8034H125.315V13.4864H127.117V15.6555H127.212C127.592 14.8067 128.161 14.2408 128.825 13.7693C129.489 13.2977 130.343 13.1091 131.291 13.1091C132.809 13.1091 133.853 13.5807 134.612 14.3351Z" fill="#001A34"/>
<path d="M96.761 50.2667H94.674L85.2825 36.4033H85.1876V50.2667H83.2903V33.1968H85.3773L94.7689 47.0602H94.8637V33.1968H96.761V50.2667Z" fill="#001A34"/>
<path d="M102.453 41.1188C101.789 41.6847 101.314 42.5335 101.22 43.5709H108.619C108.524 42.5335 108.145 41.6847 107.575 41.1188C106.911 40.553 106.058 40.2701 105.014 40.2701C103.971 40.2701 103.117 40.553 102.453 41.1188ZM109.188 40.2701C110.137 41.4018 110.611 42.8164 110.611 44.514V44.7969H101.22C101.22 46.0229 101.599 47.0603 102.358 47.7205C103.117 48.4749 104.066 48.8522 105.299 48.8522C106.247 48.8522 107.006 48.6636 107.575 48.2863C108.145 47.9091 108.714 47.3432 109.188 46.7774L110.421 47.9091C109.852 48.6636 109.188 49.3237 108.429 49.7953C107.67 50.3611 106.627 50.5497 105.299 50.5497C104.16 50.5497 103.117 50.2668 102.168 49.7953C101.314 49.3237 100.556 48.5693 100.081 47.7205C99.6069 46.7774 99.3223 45.74 99.3223 44.6083C99.3223 43.3823 99.6069 42.3449 100.081 41.4961C100.556 40.553 101.22 39.8928 102.073 39.327C102.927 38.8554 103.971 38.5725 105.109 38.5725C106.911 38.6668 108.24 39.1384 109.188 40.2701Z" fill="#001A34"/>
<path d="M128.256 38.9497L124.366 50.2668H122.754L119.528 41.3074L116.398 50.2668H114.785L110.896 38.9497H112.888L115.639 48.0034L118.675 38.9497H120.477L123.513 48.0034L126.264 38.9497H128.256Z" fill="#001A34"/>
<path d="M143.908 33.857L143.054 35.6489C141.916 34.9888 140.683 34.7058 139.545 34.7058C138.691 34.7058 138.027 34.8944 137.647 35.2717C137.173 35.6489 136.983 36.1205 136.983 36.6863C136.983 37.2522 137.173 37.6294 137.458 38.0066C137.742 38.3839 138.216 38.8554 138.88 39.2327L141.726 41.3075C142.675 41.9676 143.434 42.7221 143.908 43.4766C144.383 44.231 144.667 45.0798 144.667 46.0229C144.667 47.5318 144.193 48.6636 143.244 49.418C142.296 50.1725 140.967 50.644 139.355 50.644C138.406 50.644 137.458 50.4554 136.509 50.1725C135.56 49.8896 134.706 49.5123 133.948 49.0408L134.896 47.2489C136.414 48.192 137.932 48.6635 139.45 48.6635C140.493 48.6635 141.347 48.3806 141.916 47.9091C142.485 47.4375 142.77 46.7774 142.77 46.0229C142.77 45.457 142.58 44.8912 142.296 44.4196C141.916 43.9481 141.347 43.3823 140.588 42.8164L137.742 40.7416C136.888 40.0814 136.319 39.5156 135.845 38.8554C135.371 38.1953 135.181 37.4408 135.181 36.592C135.181 35.366 135.56 34.4229 136.414 33.7627C137.268 33.0083 138.406 32.7253 139.829 32.7253C140.873 32.8197 142.39 33.1969 143.908 33.857Z" fill="#001A34"/>
<path d="M153.869 50.2667L148.651 44.5138V50.2667H146.849V33.1968H148.651V43.948L153.395 38.9496H155.766L150.549 44.1366L156.335 50.2667H153.869Z" fill="#001A34"/>
<path d="M158.138 38.9497H159.94V50.2668H158.138V38.9497ZM160.035 33.5741C160.32 33.857 160.509 34.2342 160.509 34.6115C160.509 34.9887 160.32 35.366 160.035 35.6489C159.75 35.9318 159.371 36.1204 158.992 36.1204C158.612 36.1204 158.233 35.9318 157.948 35.6489C157.663 35.366 157.474 34.9887 157.474 34.6115C157.474 34.2342 157.663 33.857 157.948 33.5741C158.233 33.2912 158.612 33.1025 158.992 33.1025C159.371 33.1025 159.75 33.2912 160.035 33.5741Z" fill="#001A34"/>
<path d="M164.873 33.1968H163.071V50.2667H164.873V33.1968Z" fill="#001A34"/>
<path d="M169.996 33.1968H168.193V50.2667H169.996V33.1968Z" fill="#001A34"/>
<path d="M174.265 50.2668C173.411 50.0782 172.747 49.701 172.083 49.3237L172.937 47.7205C174.17 48.5693 175.498 48.9465 176.826 48.9465C177.585 48.9465 178.154 48.8522 178.534 48.5693C178.913 48.2863 179.103 47.9091 179.103 47.4375C179.103 47.0603 179.008 46.7774 178.723 46.4945C178.439 46.2115 178.059 46.0229 177.585 45.74L175.498 44.7026C173.885 43.9481 173.031 42.9107 173.031 41.5904C173.031 40.6473 173.411 39.8928 174.075 39.327C174.739 38.7611 175.688 38.5725 176.921 38.5725C178.154 38.5725 179.482 38.8554 180.715 39.4213L179.956 41.0245C178.818 40.4587 177.775 40.2701 176.826 40.2701C176.162 40.2701 175.688 40.3644 175.403 40.553C175.024 40.7416 174.929 41.1188 174.929 41.4961C174.929 41.8733 175.024 42.1562 175.308 42.4392C175.593 42.7221 175.972 43.005 176.541 43.1936L178.628 44.1367C179.387 44.514 180.051 44.9855 180.431 45.4571C180.81 45.9286 181.095 46.5888 181.095 47.3432C181.095 48.3806 180.715 49.2294 179.956 49.7953C179.198 50.3611 178.154 50.6441 176.826 50.6441C175.877 50.6441 175.024 50.5497 174.265 50.2668Z" fill="#001A34"/>
</svg>
