<svg width="29" height="35" viewBox="0 0 29 35" fill="none" xmlns="http://www.w3.org/2000/svg">
<path fill-rule="evenodd" clip-rule="evenodd" d="M7.76216 6.12816C7.76216 6.18429 7.76351 6.24016 7.76554 6.29604H18.1776V5.70585C18.1626 5.53847 18.1389 5.37334 18.1064 5.21095C17.821 3.77538 16.8778 2.55909 15.5838 1.8529L16.3798 0.293865C16.4291 0.19708 16.3952 0.0763482 16.3043 0.0239639C16.2134 -0.0284204 16.0997 0.00749988 16.0504 0.104036L15.2441 1.68328C14.5593 1.37047 13.7911 1.19511 12.9795 1.19511C12.1617 1.19511 11.3879 1.37297 10.6992 1.69026L9.8895 0.104036C9.84021 0.00749449 9.72641 -0.0284204 9.63548 0.0239639C9.54448 0.0763482 9.51068 0.19708 9.56004 0.293865L10.3603 1.86139C9.12681 2.53963 8.21428 3.68234 7.89064 5.03608C7.80667 5.38731 7.76216 5.75274 7.76216 6.12816ZM10.5961 4.33724C10.3257 4.33724 10.1066 4.10426 10.1066 3.81689C10.1066 3.52953 10.3257 3.29655 10.5961 3.29655C10.8665 3.29655 11.0858 3.52953 11.0858 3.81689C11.0858 4.10426 10.8665 4.33724 10.5961 4.33724ZM7.75235 6.72439H7.80969H18.1872V14.7952C18.1872 15.4685 17.6684 16.0195 17.0342 16.0195H16.0653V18.8325C16.0649 19.5083 15.549 20.0563 14.9123 20.0563C14.2757 20.0563 13.7591 19.5083 13.7591 18.8325V16.0195H12.2056V18.8325C12.2053 19.5083 11.6892 20.0563 11.0526 20.0563C10.416 20.0563 9.89969 19.5083 9.89969 18.8325V16.0195H8.90549C8.2712 16.0195 7.75235 15.4685 7.75235 14.7952V6.72439ZM14.8532 3.81689C14.8532 4.10426 15.0724 4.33724 15.3428 4.33724C15.6132 4.33724 15.8324 4.10426 15.8324 3.81689C15.8324 3.52953 15.6132 3.29655 15.3428 3.29655C15.0724 3.29655 14.8532 3.52953 14.8532 3.81689ZM20.9004 7.73432C20.9004 7.05857 20.384 6.51053 19.7474 6.51053C19.1108 6.51053 18.5946 7.05857 18.5944 7.73432V12.8769C18.5944 13.5529 19.1108 14.1009 19.7474 14.1009C20.384 14.1009 20.9002 13.5529 20.9004 12.8769V7.73432ZM7.33943 12.8769V7.73432C7.33916 7.05857 6.82299 6.51053 6.18629 6.51053C5.5497 6.51053 5.03336 7.05857 5.03336 7.73432V12.8769C5.03363 13.5529 5.5497 14.1009 6.18629 14.1009C6.82299 14.1009 7.33943 13.5529 7.33943 12.8769Z" fill="black"/>
<path fill-rule="evenodd" clip-rule="evenodd" d="M1.36149 34.9251V31.0544C2.10115 31.8399 3.1225 32.3166 4.28473 32.3166C6.79417 32.3166 8.78403 30.1382 8.78403 27.4551C8.78403 24.7624 6.79417 22.584 4.28473 22.584C3.1225 22.584 2.10115 23.0609 1.36149 23.837V22.7711H0.0407104V34.9251H1.36149ZM18.4167 32.1202V22.7711H17.096V23.837C16.3562 23.0514 15.335 22.584 14.1726 22.584C11.6545 22.584 9.67338 24.7531 9.67338 27.4362C9.67338 30.129 11.6545 32.3073 14.1726 32.3073C15.335 32.3073 16.3562 31.8305 17.096 31.0544V32.1202H18.4167ZM28.023 22.7618H26.535L23.6339 30.1395L20.7413 22.7713H19.2092L22.8631 31.7746L22.5725 32.4757C22.2469 33.2518 21.6305 33.5882 21.0406 33.5882H20.5562V35.0001H21.023C22.3348 35.0001 23.3739 34.2523 23.9285 32.8312L28.023 22.7618ZM11.0026 27.4363C11.0026 29.3718 12.4642 30.9425 14.2693 30.9425C15.3963 30.9425 16.4088 30.3441 16.9989 29.4092C17.0339 29.3625 17.0867 29.2595 17.0957 29.0911V25.7722C17.0957 25.6366 17.0507 25.5486 17.0211 25.4908C17.0161 25.4809 17.0115 25.4719 17.0076 25.4636C16.4616 24.5008 15.3963 23.9398 14.2693 23.9398C12.4642 23.9398 11.0026 25.5106 11.0026 27.4363ZM1.44951 29.4278C2.01307 30.3815 3.06085 30.9517 4.18794 30.9517C5.98409 30.9517 7.44575 29.3809 7.44575 27.4552C7.44575 25.5197 5.98409 23.949 4.18794 23.949C3.06085 23.949 2.04831 24.5195 1.45832 25.4544C1.42308 25.501 1.37032 25.6038 1.36151 25.7629V29.1192C1.36151 29.2782 1.41437 29.3717 1.44951 29.4278Z" fill="black"/>
</svg>
