<svg width="52" height="26" viewBox="0 0 52 26" fill="none" xmlns="http://www.w3.org/2000/svg">
<path fill-rule="evenodd" clip-rule="evenodd" d="M10.8036 3.74773C11.4768 2.93475 11.9303 1.80284 11.8061 0.676636C10.8356 0.715737 9.66231 1.32181 8.96654 2.1348C8.34273 2.8541 7.7964 4.00597 7.94425 5.10977C9.02584 5.19327 10.1304 4.56113 10.8036 3.74773ZM13.2296 10.8949C13.256 13.7477 15.6871 14.7351 15.8115 14.7856L15.8162 14.7876L15.8132 14.7974C15.7708 14.9367 15.3832 16.21 14.4824 17.5235C13.6787 18.6953 12.845 19.8626 11.5313 19.8871C10.9009 19.8986 10.4794 19.7167 10.0413 19.5275C9.58235 19.3294 9.1051 19.1234 8.35019 19.1234C7.56056 19.1234 7.06137 19.3355 6.58041 19.5399C6.16323 19.7171 5.75976 19.8886 5.19237 19.9107C3.92457 19.9588 2.95881 18.644 2.14919 17.4762C0.493984 15.0882 -0.771041 10.728 0.927651 7.78475C1.77126 6.32333 3.27981 5.39793 4.91643 5.37349C5.62176 5.36033 6.30474 5.6307 6.90275 5.86744C7.35986 6.04839 7.76732 6.20969 8.09718 6.20969C8.39253 6.20969 8.7885 6.05382 9.25032 5.87202C9.9778 5.58565 10.8687 5.23494 11.7871 5.32787C12.4157 5.35394 14.1796 5.58122 15.3122 7.23611L15.3067 7.23938C15.16 7.32736 13.2066 8.49866 13.2288 10.8954L13.2296 10.8949ZM22.1965 2.12155C21.6442 2.1837 21.0937 2.26166 20.5456 2.35535V19.6402H21.7584V12.1653C22.3087 12.2863 22.9871 12.3466 23.7951 12.3466C24.6893 12.3466 25.5144 12.2342 26.2706 12.0093C27.0277 11.7845 27.6807 11.4428 28.2314 10.9842C28.7828 10.5245 29.2277 9.9438 29.5336 9.28446C29.8514 8.60914 30.0107 7.82222 30.0107 6.92289C30.0107 6.17915 29.8945 5.52135 29.6629 4.9503C29.4411 4.39471 29.112 3.89139 28.6955 3.47096C28.2144 3.00337 27.5997 2.64453 26.8517 2.39404C26.1038 2.14314 25.2143 2.01769 24.1825 2.01769C23.5192 2.01452 22.8561 2.0492 22.1965 2.12155ZM21.7582 11.0767C22.0508 11.1623 22.3769 11.2234 22.7386 11.2576C23.0992 11.2922 23.4858 11.3093 23.8985 11.3093C25.4458 11.3093 26.6452 10.946 27.4959 10.2194C28.347 9.49313 28.7728 8.42925 28.7728 7.0277C28.7728 6.35279 28.6605 5.76505 28.4368 5.26243C28.2247 4.77531 27.8968 4.35123 27.4833 4.02951C27.0709 3.70937 26.5808 3.46743 26.0135 3.30288C25.4462 3.13792 24.8184 3.05564 24.1306 3.05564C23.5811 3.05564 23.1079 3.07723 22.7121 3.12081C22.3168 3.16358 21.9986 3.21123 21.7582 3.26337V11.0767ZM39.6771 18.1882C39.6601 17.6864 39.6514 17.1846 39.6514 16.6828H39.6521L39.6529 11.7772C39.6529 11.2062 39.5972 10.6311 39.4857 10.051C39.3807 9.48878 39.1655 8.9545 38.8532 8.48088C38.5437 8.0141 38.1187 7.63287 37.5771 7.3396C37.0355 7.04512 36.3342 6.89849 35.474 6.89849C34.8559 6.89613 34.2403 6.97914 33.6437 7.14532C33.0594 7.30987 32.4913 7.58236 31.9418 7.96238L32.3292 8.87149C32.771 8.57116 33.2532 8.33924 33.7603 8.18314C34.2845 8.01899 34.813 7.93672 35.3455 7.93672C36.0508 7.93672 36.6098 8.06665 37.0225 8.3261C37.4352 8.58596 37.7443 8.9057 37.9507 9.28653C38.1543 9.66028 38.2896 10.0693 38.35 10.4934C38.4066 10.8671 38.437 11.2446 38.4409 11.6228V11.9601C35.9646 11.9247 34.1121 12.3059 32.8827 13.1018C31.6532 13.8981 31.0385 15.0312 31.0385 16.5016C31.0399 16.927 31.1139 17.3489 31.2571 17.7479C31.4003 18.1581 31.6241 18.5335 31.9145 18.8505C32.2063 19.1711 32.5807 19.4305 33.0365 19.6293C33.4923 19.8281 34.0212 19.9274 34.6229 19.9274C35.104 19.9274 35.5467 19.8672 35.9512 19.7462C36.3552 19.6252 36.7165 19.4651 37.0343 19.2656C37.3371 19.0783 37.6183 18.8563 37.8724 18.6037C38.0947 18.384 38.2935 18.1404 38.4654 17.8771H38.5168L38.6974 19.6423H39.832C39.7462 19.1739 39.6944 18.69 39.6771 18.1882ZM38.4391 12.9719C37.7547 12.9554 37.07 12.9813 36.3886 13.0493C35.6754 13.1185 35.0176 13.2704 34.416 13.5038C33.8143 13.7376 33.3154 14.0794 32.9201 14.529C32.5247 14.9795 32.3271 15.5758 32.3271 16.3204C32.3271 17.2026 32.5761 17.8518 33.0742 18.2673C33.5723 18.6827 34.1313 18.8905 34.7504 18.8905C35.2493 18.8905 35.696 18.8212 36.0913 18.6827C36.4866 18.5443 36.8306 18.3577 37.1231 18.1247C37.4059 17.9012 37.6536 17.6341 37.8576 17.3329C38.0482 17.0531 38.2003 16.7474 38.3095 16.4246C38.3956 16.0784 38.4383 15.8267 38.4387 15.6711V12.9723L38.4391 12.9719ZM45.1684 15.2814L42.0225 7.1829L42.0233 7.1825H40.7329L45.1941 18.7337C45.2977 18.9761 45.3491 19.1577 45.3491 19.2787C45.3491 19.3655 45.2969 19.5467 45.1941 19.8237C44.9016 20.5507 44.5707 21.1694 44.2011 21.6802C43.8315 22.1905 43.4919 22.6015 43.1823 22.9131C42.8214 23.2764 42.4518 23.5705 42.0731 23.7953C41.6951 24.0202 41.3512 24.2018 41.0413 24.3403L41.4544 25.3525C41.592 25.3007 41.8632 25.1753 42.2664 24.9757C42.6708 24.7765 43.1135 24.4609 43.5947 24.0283C44.0181 23.6535 44.3952 23.2264 44.7174 22.7567C45.0526 22.272 45.3835 21.714 45.7096 21.0827C46.0644 20.3893 46.3871 19.6789 46.6766 18.9541C47.0277 18.0808 47.3674 17.2027 47.6957 16.32L51.2801 7.1829H49.9905L47.0501 15.2288C46.8612 15.7307 46.6892 16.2202 46.535 16.696C46.3805 17.1717 46.2429 17.5998 46.1223 17.981H46.0709C45.9512 17.5819 45.8136 17.1452 45.6586 16.6695C45.5044 16.1938 45.3404 15.7311 45.1684 15.2814Z" fill="black"/>
</svg>
