<svg width="61" height="16" viewBox="0 0 61 16" fill="none" xmlns="http://www.w3.org/2000/svg">
<path fill-rule="evenodd" clip-rule="evenodd" d="M10.7291 12.3304H3.92235L2.69866 15.7925H0L5.73603 0.218435H8.91543L14.6515 15.7925H11.9637L10.7291 12.3304ZM9.94245 10.0915L7.33119 2.73037L4.71993 10.0915H9.94245ZM22.582 16C21.0888 16 19.745 15.6742 18.5504 15.0225C17.3558 14.3709 16.4181 13.4407 15.737 12.2321C15.056 11.0234 14.7155 9.61093 14.7155 7.99454C14.7155 6.38543 15.056 4.97657 15.737 3.76792C16.4181 2.55927 17.3558 1.62913 18.5504 0.977474C19.745 0.325822 21.0888 0 22.582 0C23.6673 0 24.6798 0.176563 25.6194 0.529693C26.559 0.882823 27.3802 1.39249 28.0831 2.0587C28.786 2.72492 29.3305 3.52036 29.7165 4.44505L27.2801 5.37338C26.8795 4.44869 26.2622 3.72788 25.4282 3.21092C24.5942 2.69397 23.6455 2.43549 22.582 2.43549C21.5914 2.43549 20.6973 2.65756 19.8997 3.10171C19.1021 3.54585 18.4739 4.18839 18.015 5.02935C17.5562 5.87031 17.3267 6.8587 17.3267 7.99454C17.3267 9.13766 17.5562 10.1297 18.015 10.9706C18.4739 11.8116 19.1021 12.4542 19.8997 12.8983C20.6973 13.3424 21.5914 13.5645 22.582 13.5645C23.6527 13.5645 24.6033 13.3079 25.4336 12.7945C26.264 12.2812 26.8795 11.5622 27.2801 10.6375L29.7165 11.5659C29.3305 12.4833 28.786 13.2751 28.0831 13.9413C27.3802 14.6075 26.559 15.1172 25.6194 15.4703C24.6798 15.8234 23.6673 16 22.582 16ZM46.5297 15.7925L45.5027 3.49489L41.0341 15.7925H39.3952L34.9484 3.51673L33.9105 15.7925H31.3101L32.5557 0.218435H36.194L40.2037 11.2273L44.2462 0.218435H47.8845L49.1191 15.7925H46.5297ZM54.799 2.54471V6.85871H60.1526V9.16314H54.799V13.4553H60.8519V15.7925H52.1549V0.218435H60.8519V2.54471H54.799Z" fill="black"/>
</svg>
