<svg width="92" height="24" viewBox="0 0 92 24" fill="none" xmlns="http://www.w3.org/2000/svg">
<path fill-rule="evenodd" clip-rule="evenodd" d="M29.1915 5.79041H34.2621C35.9593 5.79041 37.2375 6.25616 37.9582 7.13678C38.6143 7.93875 38.8316 9.08387 38.6047 10.5413C38.1013 13.8725 36.1735 15.5536 32.8334 15.5536H31.2282C30.882 15.5536 30.5861 15.8158 30.5328 16.1728L29.9797 19.8202C29.9255 20.1772 29.6304 20.4394 29.2835 20.4394H26.8627C26.6025 20.4394 26.4038 20.1988 26.4445 19.932L28.4953 6.40884C28.5494 6.05259 28.8445 5.79041 29.1915 5.79041ZM31.8355 12.6222C33.1797 12.6222 34.5698 12.6222 34.8471 10.7299C34.9487 10.0652 34.8672 9.58399 34.601 9.26012C34.1546 8.71725 33.2909 8.71725 32.3752 8.71725H32.0245C31.8169 8.71725 31.639 8.87456 31.6071 9.08816L31.0703 12.6222H31.8355Z" fill="black"/>
<path fill-rule="evenodd" clip-rule="evenodd" d="M46.9908 10.6683H49.419C49.6785 10.6683 49.8764 10.9097 49.8349 11.1757L48.5226 19.8192C48.4677 20.1762 48.1741 20.4384 47.8264 20.4384H45.6392C45.3804 20.4384 45.1817 20.1978 45.2225 19.9295L45.3308 19.2277C45.3308 19.2277 44.1319 20.6736 41.9699 20.6736C40.7102 20.6736 39.6514 20.2957 38.9115 19.3889C38.1048 18.4026 37.7749 16.9884 38.0069 15.5094C38.4533 12.5444 40.745 10.4308 43.4283 10.4308C44.5982 10.4308 45.7704 10.6961 46.2961 11.4895L46.4659 11.7455L46.5734 11.0392C46.6053 10.8256 46.7839 10.6683 46.9908 10.6683ZM43.2947 17.9948C44.699 17.9948 45.8 17.0263 46.0343 15.5835C46.1403 14.8849 45.9935 14.251 45.6235 13.7968C45.2543 13.3473 44.6938 13.109 44.0043 13.109C42.6215 13.109 41.5019 14.1091 41.2832 15.5396C41.169 16.2413 41.3055 16.8713 41.6643 17.3139C42.0261 17.7596 42.5896 17.9948 43.2947 17.9948Z" fill="black"/>
<path d="M62.3514 10.6681H59.9113C59.6785 10.6681 59.4598 10.7884 59.3278 10.9896L55.9625 16.1454L54.536 11.1909C54.4463 10.8809 54.1712 10.6681 53.8598 10.6681H51.462C51.1706 10.6681 50.9682 10.9642 51.0609 11.2495L53.7486 19.4527L51.2218 23.1626C51.0231 23.4548 51.2233 23.8566 51.5665 23.8566H54.0036C54.2349 23.8566 54.4514 23.7394 54.5827 23.542L62.6983 11.3582C62.8926 11.0668 62.6931 10.6681 62.3514 10.6681Z" fill="black"/>
<path opacity="0.64" fill-rule="evenodd" clip-rule="evenodd" d="M65.3583 5.79016H70.4297C72.1268 5.79016 73.4043 6.25592 74.1242 7.13654C74.7804 7.93851 74.9991 9.08362 74.7715 10.541C74.2673 13.8723 72.3403 15.5533 68.9995 15.5533H67.395C67.0488 15.5533 66.7529 15.8155 66.6995 16.1725L66.1175 20.0058C66.0797 20.2556 65.8729 20.4392 65.6312 20.4392H63.0287C62.77 20.4392 62.5713 20.1986 62.6121 19.9318L64.6628 6.4086C64.717 6.05234 65.0121 5.79016 65.3583 5.79016ZM68.003 12.622C69.3479 12.622 70.7381 12.622 71.0147 10.7296C71.1162 10.0649 71.0354 9.58375 70.7692 9.25988C70.3229 8.71701 69.4584 8.71701 68.5435 8.71701H68.1928C67.9844 8.71701 67.808 8.87431 67.7761 9.08791L67.2386 12.622H68.003Z" fill="black"/>
<path opacity="0.64" fill-rule="evenodd" clip-rule="evenodd" d="M83.1593 10.6683H85.586C85.8462 10.6683 86.0449 10.9097 86.0049 11.1757L84.6918 19.8192C84.6377 20.1762 84.3426 20.4384 83.9964 20.4384H81.8099C81.5497 20.4384 81.351 20.1978 81.3917 19.9295L81.5 19.2277C81.5 19.2277 80.3011 20.6736 78.1391 20.6736C76.8794 20.6736 75.8221 20.2957 75.0807 19.3889C74.274 18.4026 73.9456 16.9884 74.1769 15.5094C74.6232 12.5444 76.9143 10.4308 79.5975 10.4308C80.7675 10.4308 81.9389 10.6961 82.4646 11.4895L82.6351 11.7455L82.7426 11.0392C82.7738 10.8256 82.951 10.6683 83.1593 10.6683ZM79.4618 17.9948C80.8661 17.9948 81.9686 17.0263 82.2014 15.5835C82.3089 14.8849 82.1621 14.251 81.7907 13.7968C81.4214 13.3473 80.8609 13.109 80.1714 13.109C78.7886 13.109 77.6706 14.1091 77.4504 15.5396C77.3377 16.2413 77.4726 16.8713 77.8314 17.3139C78.1933 17.7596 78.7582 17.9948 79.4618 17.9948Z" fill="black"/>
<path opacity="0.64" d="M88.4487 6.16087L86.3675 19.9316C86.3268 20.1984 86.5255 20.439 86.7842 20.439H88.8765C89.2243 20.439 89.5193 20.1768 89.5727 19.8197L91.625 6.29735C91.6658 6.03055 91.4671 5.78918 91.2083 5.78918H88.8654C88.6585 5.78996 88.4806 5.94726 88.4487 6.16087Z" fill="black"/>
<path opacity="0.64" d="M17.0884 6.4978C17.0676 6.63583 17.0439 6.77695 17.0172 6.92192C16.1 11.8193 12.9623 13.5112 8.95489 13.5112H6.91449C6.4244 13.5112 6.01143 13.8813 5.93506 14.3841L4.89039 21.2748L4.59456 23.2281C4.54488 23.5581 4.78956 23.8558 5.10985 23.8558H8.72876C9.1573 23.8558 9.52134 23.5319 9.58881 23.0923L9.6244 22.9011L10.3058 18.4039L10.3495 18.1572C10.4162 17.7161 10.781 17.3922 11.2096 17.3922H11.7508C15.257 17.3922 18.0018 15.9117 18.804 11.6273C19.1391 9.83753 18.9656 8.3431 18.0789 7.29206C17.8105 6.97513 17.4776 6.71217 17.0884 6.4978Z" fill="black"/>
<path d="M16.1292 6.10007C15.9891 6.05766 15.8445 6.0191 15.6962 5.9844C15.5472 5.95047 15.3944 5.9204 15.2372 5.89418C14.6871 5.80164 14.0843 5.75769 13.4385 5.75769H7.98757C7.85338 5.75769 7.72585 5.78931 7.61167 5.84637C7.36033 5.97206 7.17349 6.21959 7.12826 6.52264L5.96867 14.1614L5.9353 14.3842C6.01167 13.8815 6.42464 13.5113 6.91473 13.5113H8.95514C12.9626 13.5113 16.1003 11.8187 17.0174 6.92208C17.0448 6.77711 17.0678 6.636 17.0886 6.49797C16.8565 6.36996 16.6052 6.26046 16.3346 6.16716C16.2678 6.14402 16.1989 6.12166 16.1292 6.10007Z" fill="black"/>
<path opacity="0.81" d="M7.12809 6.52293C7.17332 6.21987 7.36016 5.97234 7.6115 5.84742C7.72642 5.79036 7.8532 5.75874 7.9874 5.75874H13.4384C14.0842 5.75874 14.6869 5.8027 15.2371 5.89523C15.3943 5.92145 15.547 5.95152 15.696 5.98545C15.8443 6.02015 15.9889 6.05871 16.129 6.10112C16.1987 6.12271 16.2677 6.14508 16.3351 6.16744C16.6058 6.26074 16.8571 6.37101 17.0892 6.49825C17.362 4.68843 17.0869 3.45617 16.1461 2.34036C15.1088 1.11196 13.2367 0.58606 10.8412 0.58606H3.88657C3.39723 0.58606 2.9798 0.956198 2.90418 1.45974L0.00742124 20.5566C-0.0496687 20.9344 0.230591 21.2753 0.596856 21.2753H4.89046L5.9685 14.1617L7.12809 6.52293Z" fill="black"/>
</svg>
