<svg width="110" height="18" viewBox="0 0 110 18" fill="none" xmlns="http://www.w3.org/2000/svg">
<path fill-rule="evenodd" clip-rule="evenodd" d="M78.0888 0.903198C76.8474 0.903198 75.6303 1.37083 74.681 2.25414V1.21495H72.1008V17.8679H74.6567V12.3082C75.606 13.1656 76.8231 13.6332 78.0645 13.6592C81.1315 13.6592 83.6387 10.8014 83.6387 7.29418C83.6387 3.78693 81.1802 0.903198 78.0888 0.903198ZM94.0572 2.20218V1.21495H96.613V13.4254H94.0572V12.3342C93.1078 13.1656 91.9151 13.6332 90.6737 13.6332C87.5823 13.6332 85.0995 10.7754 85.0995 7.2682C85.0995 3.76095 87.6067 0.903198 90.6737 0.903198C91.9151 0.903198 93.1078 1.37083 94.0572 2.20218ZM87.6065 7.26811C87.6065 9.47638 89.1157 11.243 90.9656 11.243C92.8156 11.243 94.3248 9.50236 94.3248 7.29409C94.3248 5.08583 92.8156 3.31921 90.9656 3.31921C89.1157 3.31921 87.6065 5.05985 87.6065 7.26811ZM74.4374 7.26821C74.4374 9.47648 75.9466 11.2431 77.7966 11.2431C79.6465 11.2431 81.1557 9.47648 81.1557 7.26821C81.1557 5.05995 79.6465 3.29333 77.7966 3.29333C75.9466 3.29333 74.4374 5.05995 74.4374 7.26821ZM107.493 1.21521L104.207 9.52868L100.702 1.21521H98.1704L102.99 12.6462L100.921 17.8681H103.428L110 1.21521H107.493ZM55.9626 10.9569L55.8409 2.9032H58.2264V13.0612H54.7943L52.4088 4.72177H52.3601L52.4818 13.0612H50.1207V2.9032H53.6989L55.914 10.9569H55.9626ZM10.5656 2.90342L8.78867 13.1654H11.3932L12.7076 3.83868H12.7563L14.0464 13.1654H16.6266L14.8497 2.90342H10.5656ZM23.9047 10.7493L25.0974 2.90342H28.9921L29.2111 13.1654H26.8013L26.7526 3.9426H26.704L25.0974 13.1654H22.6633L21.0324 3.9426H20.9837L20.935 13.1654H18.5252L18.7443 2.90342H22.6876L23.856 10.7493H23.9047ZM4.74796 10.2559C4.82098 10.5156 4.82098 10.7754 4.7723 11.0352C4.69928 11.373 4.4802 11.7107 3.82299 11.7107C3.21445 11.7107 2.84933 11.347 2.84933 10.7754V9.76224H0.269135V10.5416C0.269135 12.8278 1.94869 13.5293 3.7743 13.5293C5.52689 13.5293 6.93869 12.9058 7.1821 11.1911C7.27947 10.6196 7.27947 10.074 7.1821 9.50244C6.9451 8.26742 5.64609 7.53522 4.52904 6.90558C3.69576 6.43589 2.96373 6.02328 2.84933 5.50159C2.82499 5.31973 2.82499 5.13787 2.84933 4.95601C2.92235 4.61828 3.11708 4.25457 3.72562 4.25457C4.18811 4.20261 4.57757 4.56632 4.62625 5.03395V5.18983V5.81334H7.03606V5.08591C7.03606 2.85167 5.16176 2.48795 3.79864 2.48795C2.09474 2.48795 0.682939 3.08548 0.439525 4.77416C0.342159 5.24179 0.342159 5.70942 0.439525 6.17706C0.664767 7.42414 1.89958 8.14984 2.99975 8.79642C3.80187 9.26783 4.53242 9.69717 4.74796 10.2559ZM36.0267 11.009C36.0754 10.7492 36.0754 10.4894 36.0023 10.2556C35.7933 9.68662 35.0501 9.25179 34.2372 8.77624C33.1572 8.14437 31.9543 7.4406 31.7182 6.25474C31.6209 5.78711 31.6209 5.31947 31.6939 4.87782C31.9616 3.21512 33.3248 2.61759 35.0287 2.61759C36.3918 2.61759 38.2417 2.98131 38.2417 5.18957V5.917H35.8806V5.29349V5.16359C35.8563 4.69596 35.4425 4.33225 35.0043 4.38421C34.3958 4.38421 34.2011 4.72194 34.128 5.05968C34.1037 5.24153 34.1037 5.39741 34.128 5.57927C34.2325 6.09218 34.9602 6.50459 35.7897 6.97466C36.8928 7.59983 38.1759 8.32699 38.4121 9.52817C38.5095 10.0737 38.5095 10.6453 38.4121 11.1909C38.1931 12.8795 36.7813 13.503 35.053 13.503C33.2761 13.503 31.5965 12.8276 31.5965 10.5674V9.78796H34.1524V10.7752C34.1524 11.3208 34.5175 11.6845 35.1017 11.6845C35.7346 11.6845 35.9536 11.3467 36.0267 11.009ZM44.085 11.6066C44.5231 11.6585 44.9126 11.3208 45.0099 10.8792C45.0343 10.7493 45.0343 10.6194 45.0343 10.4895V2.90342H47.4684V10.2556C47.4684 10.3591 47.4605 10.5298 47.4538 10.6769L47.4537 10.6774L47.4537 10.6776C47.4486 10.7888 47.4441 10.8864 47.4441 10.9311C47.2737 12.8536 45.8619 13.4771 44.085 13.4771C42.308 13.4771 40.8962 12.8536 40.7258 10.9311C40.7258 10.8864 40.7213 10.7888 40.7162 10.6776L40.7162 10.6774L40.7162 10.6769C40.7094 10.5298 40.7015 10.3591 40.7015 10.2556V2.90342H43.1357V10.4895C43.1357 10.6194 43.1357 10.7493 43.16 10.8792C43.2574 11.3468 43.6468 11.6585 44.085 11.6066ZM65.1147 10.7757C65.0904 11.0355 64.847 11.5032 64.1411 11.5032C63.4352 11.5032 63.1918 11.0355 63.1918 10.7757C63.1674 10.6458 63.1674 10.5159 63.1674 10.386V5.68374C63.1674 5.50188 63.1918 5.346 63.2161 5.19012C63.3135 4.72249 63.7029 4.38476 64.1654 4.43671C64.92 4.43671 65.0904 4.95631 65.1391 5.19012C65.1634 5.32002 65.1634 5.44992 65.1634 5.57982V6.15137H67.5976V5.81363C67.5976 5.57982 67.5976 5.37198 67.5732 5.13816C67.3785 3.18969 65.8937 2.59216 64.1898 2.59216C62.4859 2.59216 61.0254 3.21567 60.8063 5.13816C60.8041 5.1596 60.8018 5.18081 60.7996 5.20185C60.7777 5.41031 60.7576 5.60125 60.7576 5.81363V10.1522C60.7576 10.3341 60.7576 10.49 60.782 10.8277C60.9524 12.6982 62.4615 13.3737 64.1654 13.3737C65.8693 13.3737 67.4028 12.6982 67.5489 10.8277C67.5732 10.4901 67.5732 10.3342 67.5732 10.1524V10.1522V7.39839H64.1654V8.90521H65.1391V10.386C65.1391 10.5159 65.1391 10.6458 65.1147 10.7757Z" fill="black"/>
</svg>
